<mxfile host="app.diagrams.net" modified="2024-07-11T08:49:14.507Z" agent="Mozilla/5.0 (Windows NT 10.0; Win64; x64) AppleWebKit/537.36 (KHTML, like Gecko) Chrome/124.0.0.0 YaBrowser/24.6.0.0 Safari/537.36" version="24.6.4" etag="QWAbipilFc0MxImot0E5" type="github">
  <diagram name="Страница — 1" id="N0BcQr4Uiu5uYFxRLrW0">
    <mxGraphModel>
      <root>
        <mxCell id="0" />
        <mxCell id="1" parent="0" />
      </root>
    </mxGraphModel>
  </diagram>
</mxfile>
